<?xml version="1.0" standalone="no"?>
<!DOCTYPE svg PUBLIC "-//W3C//DTD SVG 20010904//EN"
 "http://www.w3.org/TR/2001/REC-SVG-20010904/DTD/svg10.dtd">
<svg version="1.0" xmlns="http://www.w3.org/2000/svg"
 width="297.000000pt" height="297.000000pt" viewBox="0 0 297.000000 297.000000"
 preserveAspectRatio="xMidYMid meet">
<metadata>
Created by potrace 1.11, written by Peter Selinger 2001-2013
</metadata>
<g transform="translate(0.000000,297.000000) scale(0.100000,-0.100000)"
fill="#000000" stroke="none">
<path d="M1768 2289 c-144 -22 -321 -166 -402 -328 -25 -49 -64 -193 -68 -249
-2 -29 -9 -37 -48 -57 -54 -28 -84 -55 -105 -95 -11 -21 -23 -30 -40 -30 -21
0 -24 -6 -30 -54 -4 -30 -4 -73 0 -95 5 -33 11 -41 28 -41 16 0 27 -12 41 -41
24 -52 70 -95 126 -116 25 -9 54 -23 65 -30 26 -17 50 -16 66 3 11 13 16 5 39
-58 80 -228 213 -321 455 -320 133 1 200 27 340 132 82 62 124 109 166 187 30
56 41 69 74 80 55 19 102 58 137 114 16 27 36 49 43 49 19 0 33 48 29 108 -3
69 -9 82 -33 82 -12 0 -26 11 -35 28 -19 37 -63 76 -113 101 -36 18 -43 27
-48 58 -32 215 -115 365 -268 483 -37 29 -134 75 -177 85 -47 11 -184 13 -242
4z m210 -309 c81 -45 100 -134 102 -463 0 -195 -5 -275 -24 -374 -13 -62 -76
-132 -124 -135 -114 -6 -162 14 -201 83 -30 52 -30 51 -40 138 -10 79 -7 540
3 596 10 51 32 104 54 129 49 55 156 67 230 26z"/>
<path d="M730 2194 c-36 -13 -159 -58 -275 -99 -116 -40 -217 -76 -225 -80
-13 -4 -16 -26 -16 -120 0 -111 1 -115 21 -108 11 3 34 9 50 14 17 4 75 21
130 39 55 18 108 34 118 37 16 5 17 -20 18 -423 0 -236 0 -480 0 -542 0 -61 3
-113 7 -113 25 -4 272 -4 273 1 3 16 4 1397 1 1408 -6 17 -27 14 -102 -14z"/>
</g>
</svg>
